<?xml version="1.0" encoding="UTF-8"?>
<svg version="1.1" xmlns="http://www.w3.org/2000/svg" width="64" height="64">
<path d="M0 0 C3.35514864 1.68698128 4.56136561 4.74525096 6.15234375 7.98828125 C6.50232422 8.6946875 6.85230469 9.40109375 7.21289062 10.12890625 C12.10614041 20.65261859 13.08984375 31.57236101 13.08984375 43.05078125 C-5.39015625 43.05078125 -23.87015625 43.05078125 -42.91015625 43.05078125 C-41.70120103 28.54331856 -41.70120103 28.54331856 -39.91015625 25.05078125 C-35.91015625 22.05078125 -35.91015625 22.05078125 -32.91015625 22.05078125 C-32.66265625 21.47328125 -32.41515625 20.89578125 -32.16015625 20.30078125 C-30.69744135 17.66789443 -29.27188856 15.92627456 -26.91015625 14.05078125 C-23.89204203 14.22831738 -23.0728041 14.8881334 -20.91015625 17.05078125 C-21.28515625 20.05078125 -21.28515625 20.05078125 -21.91015625 23.05078125 C-21.91015625 23.71078125 -21.91015625 24.37078125 -21.91015625 25.05078125 C-21.595625 24.42429687 -21.28109375 23.7978125 -20.95703125 23.15234375 C-20.5290625 22.33507812 -20.10109375 21.5178125 -19.66015625 20.67578125 C-19.2425 19.86367188 -18.82484375 19.0515625 -18.39453125 18.21484375 C-16.72425352 15.77975464 -15.68147608 14.99886435 -12.91015625 14.05078125 C-11.59015625 14.05078125 -10.27015625 14.05078125 -8.91015625 14.05078125 C-8.82378906 13.45910156 -8.73742188 12.86742187 -8.6484375 12.2578125 C-7.75036775 7.20720003 -6.37387262 0.16944856 0 0 Z M-4.91015625 23.05078125 C-7.19744359 24.88962006 -7.19744359 24.88962006 -7.03515625 27.67578125 C-6.99390625 28.45953125 -6.95265625 29.24328125 -6.91015625 30.05078125 C-6.25015625 30.05078125 -5.59015625 30.05078125 -4.91015625 30.05078125 C-4.58015625 27.74078125 -4.25015625 25.43078125 -3.91015625 23.05078125 C-4.24015625 23.05078125 -4.57015625 23.05078125 -4.91015625 23.05078125 Z " fill="#AB00FF" transform="translate(46.91015625,9.94921875)"/>
<path d="M0 0 C3 0.125 3 0.125 4 1.125 C4.125 4.125 4.125 4.125 4 7.125 C3 8.125 3 8.125 0 8.25 C-3 8.125 -3 8.125 -4 7.125 C-4.125 4.125 -4.125 4.125 -4 1.125 C-3 0.125 -3 0.125 0 0 Z " fill="#AC00FF" transform="translate(13,6.875)"/>
</svg>
